<?xml version="1.0" standalone="no"?>
<!DOCTYPE svg PUBLIC "-//W3C//DTD SVG 20010904//EN"
 "http://www.w3.org/TR/2001/REC-SVG-20010904/DTD/svg10.dtd">
<svg version="1.0" xmlns="http://www.w3.org/2000/svg"
 width="26.000000pt" height="26.000000pt" viewBox="0 0 26.000000 26.000000"
 preserveAspectRatio="xMidYMid meet">
<metadata>
Created by potrace 1.15, written by Peter Selinger 2001-2017
</metadata>
<g transform="translate(0.000000,26.000000) scale(0.100000,-0.100000)"
fill="#000000" stroke="none">
<path d="M60 213 c-89 -79 -5 -227 107 -190 42 13 83 65 83 104 0 94 -120 148
-190 86z m90 9 c0 -5 -5 -13 -12 -20 -9 -9 -9 -12 0 -12 7 0 12 5 12 10 0 15
27 12 44 -5 13 -13 11 -19 -17 -47 -18 -18 -38 -31 -44 -30 -7 2 -13 0 -13 -4
0 -12 35 -33 56 -34 30 0 36 -11 17 -32 -21 -24 -43 -23 -43 1 0 11 -9 22 -19
26 -30 9 -81 73 -81 100 0 13 8 30 19 37 20 14 81 22 81 10z"/>
</g>
</svg>
